<?xml version="1.0" encoding="utf-8"?>
<!-- Generator: Adobe Illustrator 26.5.0, SVG Export Plug-In . SVG Version: 6.00 Build 0)  -->
<svg version="1.1" id="Layer_1" xmlns="http://www.w3.org/2000/svg" xmlns:xlink="http://www.w3.org/1999/xlink" x="0px" y="0px"
	 viewBox="0 0 496.06 240.94" style="enable-background:new 0 0 496.06 240.94;" xml:space="preserve">
<style type="text/css">
	.st0{clip-path:url(#SVGID_00000065039886025287329020000014412363249196553143_);fill:#1E3362;}
	.st1{clip-path:url(#SVGID_00000065039886025287329020000014412363249196553143_);fill:#00743D;}
	
		.st2{clip-path:url(#SVGID_00000065039886025287329020000014412363249196553143_);fill-rule:evenodd;clip-rule:evenodd;fill:#1E3362;}
	
		.st3{clip-path:url(#SVGID_00000065039886025287329020000014412363249196553143_);fill-rule:evenodd;clip-rule:evenodd;fill:#00743D;}
	.st4{clip-path:url(#SVGID_00000181064731144878234350000010537473068823920544_);fill:#1E3362;}
	.st5{clip-path:url(#SVGID_00000181064731144878234350000010537473068823920544_);fill:#00743D;}
	
		.st6{clip-path:url(#SVGID_00000181064731144878234350000010537473068823920544_);fill-rule:evenodd;clip-rule:evenodd;fill:#1E3362;}
	
		.st7{clip-path:url(#SVGID_00000181064731144878234350000010537473068823920544_);fill-rule:evenodd;clip-rule:evenodd;fill:#00743D;}
	.st8{clip-path:url(#SVGID_00000085209081384587746750000014022162121210922943_);fill:#1E3362;}
	.st9{clip-path:url(#SVGID_00000085209081384587746750000014022162121210922943_);fill:#00743D;}
	
		.st10{clip-path:url(#SVGID_00000085209081384587746750000014022162121210922943_);fill-rule:evenodd;clip-rule:evenodd;fill:#1E3362;}
	
		.st11{clip-path:url(#SVGID_00000085209081384587746750000014022162121210922943_);fill-rule:evenodd;clip-rule:evenodd;fill:#00743D;}
	.st12{clip-path:url(#SVGID_00000159461276641950584490000017954469761730953916_);fill:#1E3362;}
	.st13{clip-path:url(#SVGID_00000159461276641950584490000017954469761730953916_);fill:#00743D;}
	
		.st14{clip-path:url(#SVGID_00000159461276641950584490000017954469761730953916_);fill-rule:evenodd;clip-rule:evenodd;fill:#1E3362;}
	
		.st15{clip-path:url(#SVGID_00000159461276641950584490000017954469761730953916_);fill-rule:evenodd;clip-rule:evenodd;fill:#00743D;}
	.st16{clip-path:url(#SVGID_00000028311052220639966720000007901846578239093893_);fill:#1E3362;}
	.st17{clip-path:url(#SVGID_00000028311052220639966720000007901846578239093893_);fill:#00743D;}
	
		.st18{clip-path:url(#SVGID_00000028311052220639966720000007901846578239093893_);fill-rule:evenodd;clip-rule:evenodd;fill:#1E3362;}
	
		.st19{clip-path:url(#SVGID_00000028311052220639966720000007901846578239093893_);fill-rule:evenodd;clip-rule:evenodd;fill:#00743D;}
	.st20{clip-path:url(#SVGID_00000165193966055498875190000003950971712333268902_);fill:#1E3362;}
	.st21{clip-path:url(#SVGID_00000165193966055498875190000003950971712333268902_);fill:#00743D;}
	
		.st22{clip-path:url(#SVGID_00000165193966055498875190000003950971712333268902_);fill-rule:evenodd;clip-rule:evenodd;fill:#1E3362;}
	
		.st23{clip-path:url(#SVGID_00000165193966055498875190000003950971712333268902_);fill-rule:evenodd;clip-rule:evenodd;fill:#00743D;}
	.st24{clip-path:url(#SVGID_00000072968006668761384660000005665293575131390592_);fill:#1E3362;}
	.st25{clip-path:url(#SVGID_00000072968006668761384660000005665293575131390592_);fill:#00743D;}
	
		.st26{clip-path:url(#SVGID_00000072968006668761384660000005665293575131390592_);fill-rule:evenodd;clip-rule:evenodd;fill:#1E3362;}
	
		.st27{clip-path:url(#SVGID_00000072968006668761384660000005665293575131390592_);fill-rule:evenodd;clip-rule:evenodd;fill:#00743D;}
	.st28{clip-path:url(#SVGID_00000143596656441279785130000001620200112506444458_);fill:#1E3362;}
	.st29{clip-path:url(#SVGID_00000143596656441279785130000001620200112506444458_);fill:#00743D;}
	
		.st30{clip-path:url(#SVGID_00000143596656441279785130000001620200112506444458_);fill-rule:evenodd;clip-rule:evenodd;fill:#1E3362;}
	
		.st31{clip-path:url(#SVGID_00000143596656441279785130000001620200112506444458_);fill-rule:evenodd;clip-rule:evenodd;fill:#00743D;}
	.st32{clip-path:url(#SVGID_00000046325239658543058570000001674527636094039974_);fill:#1E3362;}
	.st33{clip-path:url(#SVGID_00000046325239658543058570000001674527636094039974_);fill:#00743D;}
	
		.st34{clip-path:url(#SVGID_00000046325239658543058570000001674527636094039974_);fill-rule:evenodd;clip-rule:evenodd;fill:#1E3362;}
	
		.st35{clip-path:url(#SVGID_00000046325239658543058570000001674527636094039974_);fill-rule:evenodd;clip-rule:evenodd;fill:#00743D;}
	.st36{clip-path:url(#SVGID_00000150060381189215369680000007366483692531702667_);fill:#1E3362;}
	.st37{clip-path:url(#SVGID_00000150060381189215369680000007366483692531702667_);fill:#00743D;}
	
		.st38{clip-path:url(#SVGID_00000150060381189215369680000007366483692531702667_);fill-rule:evenodd;clip-rule:evenodd;fill:#1E3362;}
	
		.st39{clip-path:url(#SVGID_00000150060381189215369680000007366483692531702667_);fill-rule:evenodd;clip-rule:evenodd;fill:#00743D;}
	.st40{clip-path:url(#SVGID_00000165226941751006393010000004925827711901556634_);fill:#1E3362;}
	.st41{clip-path:url(#SVGID_00000165226941751006393010000004925827711901556634_);fill:#00743D;}
	
		.st42{clip-path:url(#SVGID_00000165226941751006393010000004925827711901556634_);fill-rule:evenodd;clip-rule:evenodd;fill:#1E3362;}
	
		.st43{clip-path:url(#SVGID_00000165226941751006393010000004925827711901556634_);fill-rule:evenodd;clip-rule:evenodd;fill:#00743D;}
	.st44{clip-path:url(#SVGID_00000064343136474513564520000010954573507223631245_);fill:#00743D;}
	
		.st45{clip-path:url(#SVGID_00000064343136474513564520000010954573507223631245_);fill-rule:evenodd;clip-rule:evenodd;fill:#1E3362;}
	
		.st46{clip-path:url(#SVGID_00000064343136474513564520000010954573507223631245_);fill-rule:evenodd;clip-rule:evenodd;fill:#00743D;}
	.st47{clip-path:url(#SVGID_00000064343136474513564520000010954573507223631245_);fill:#1E3362;}
</style>
<g>
	<g>
		<defs>
			<rect id="SVGID_00000151530505055033402270000005685925014690640007_" width="496.06" height="240.94"/>
		</defs>
		<clipPath id="SVGID_00000118359665421977168670000014735624053452689299_">
			<use xlink:href="#SVGID_00000151530505055033402270000005685925014690640007_"  style="overflow:visible;"/>
		</clipPath>
		<path style="clip-path:url(#SVGID_00000118359665421977168670000014735624053452689299_);fill:#1E3362;" d="M160.04,72.01
			c0,1.99-0.48,3.67-1.45,5.03c-0.97,1.36-2.42,2.04-4.35,2.04h-25.2c-2.05,0-3.72-0.85-4.99-2.54c-0.91-1.21-1.36-2.24-1.36-3.08
			V21.43c0-2.42,0.71-4.26,2.13-5.53c1.42-1.27,3.13-1.9,5.12-1.9c1.93,0,3.66,0.57,5.17,1.72c1.51,1.15,2.27,2.63,2.27,4.44v44.96
			h16.86c1.87,0,3.31,0.68,4.31,2.04C159.54,68.52,160.04,70.14,160.04,72.01"/>
		<path style="clip-path:url(#SVGID_00000118359665421977168670000014735624053452689299_);fill:#1E3362;" d="M205.56,53.16
			l-7.61-23.2l-7.8,23.2H205.56z M226.04,71.47c0,2.24-0.65,4.09-1.95,5.57c-1.3,1.48-2.89,2.22-4.76,2.22
			c-1.33,0-2.69-0.57-4.08-1.72c-1.39-1.15-2.51-2.75-3.35-4.8l-2.18-6.16h-23.75l-1.45,5.44c-0.54,2.3-1.62,4.14-3.22,5.53
			c-1.6,1.39-3.25,2.08-4.94,2.08s-3.14-0.63-4.35-1.9c-1.21-1.27-1.81-3.05-1.81-5.35c0-1.81,0.6-4.23,1.81-7.25l15.23-43.69
			c1.39-2.72,2.93-4.73,4.62-6.03s3.47-1.95,5.35-1.95c2.24,0,4.32,0.77,6.25,2.31c1.93,1.54,3.35,3.43,4.26,5.67l17.58,45.68
			c0.24,0.6,0.42,1.33,0.54,2.18C225.98,70.14,226.04,70.86,226.04,71.47z"/>
		<path style="clip-path:url(#SVGID_00000118359665421977168670000014735624053452689299_);fill:#1E3362;" d="M296.22,74.19
			c0,1.51-0.71,2.76-2.13,3.76c-1.42,1-3.07,1.5-4.94,1.5c-3.14,0-5.44-1.27-6.89-3.81L254.7,40.47v32.99
			c0,1.75-0.71,3.19-2.13,4.31c-1.42,1.12-3.07,1.68-4.94,1.68c-1.69,0-3.14-0.45-4.35-1.36c-1.45-1.09-2.3-2.64-2.54-4.64V20
			c0-1.51,0.8-2.82,2.4-3.96c1.6-1.12,3.34-1.68,5.21-1.68c1.27,0,2.49,0.29,3.67,0.86c1.18,0.57,2.07,1.45,2.67,2.6l27.56,34.61
			V20.16c0-1.81,0.71-3.23,2.13-4.26c1.42-1.03,3.13-1.54,5.12-1.54c1.75,0,3.31,0.45,4.67,1.36c1.36,0.91,2.04,2.15,2.04,3.72
			V74.19z"/>
		<path style="clip-path:url(#SVGID_00000118359665421977168670000014735624053452689299_);fill:#1E3362;" d="M362.77,69.11
			c0,1.63-0.42,3.16-1.27,4.58c-0.85,1.42-2.1,2.51-3.76,3.26c-1.66,0.76-4.06,1.42-7.21,1.99c-3.14,0.57-6.25,0.86-9.34,0.86
			c-8.1,0-14.93-2.69-20.49-8.07c-6.28-6.04-9.43-14.35-9.43-24.93c0-9.43,2.9-17.31,8.7-23.66c5.8-6.35,13.05-9.52,21.75-9.52
			c4.89,0,9.25,0.79,13.05,2.36c4.83,1.99,7.25,4.77,7.25,8.34c0,1.69-0.63,3.23-1.9,4.62c-1.27,1.39-2.45,2.08-3.54,2.08
			c-0.6,0-1.27-0.09-1.99-0.27c-2.24-0.54-3.38-0.82-3.44-0.82c-1.21-0.42-2.6-0.77-4.17-1.04c-1.57-0.27-3.02-0.41-4.35-0.41
			c-2.9,0-6.1,1.69-9.61,5.08c-3.87,3.75-5.8,7.67-5.8,11.78c0,6.95,1.28,12.07,3.85,15.36c2.57,3.29,6.42,4.94,11.56,4.94
			c1.39,0,2.73-0.17,4.03-0.5c1.3-0.33,2.79-0.83,4.49-1.5c0.97-0.36,1.86-0.6,2.67-0.73c0.82-0.12,1.62-0.18,2.4-0.18
			c2.05,0,3.66,0.63,4.8,1.9C362.19,65.94,362.77,67.42,362.77,69.11"/>
		<path style="clip-path:url(#SVGID_00000118359665421977168670000014735624053452689299_);fill:#1E3362;" d="M415.72,72.19
			c0,1.81-0.51,3.41-1.54,4.8c-1.03,1.39-2.33,2.08-3.9,2.08h-26.65c-1.03,0-2.1-0.56-3.22-1.68c-1.12-1.12-1.68-2.19-1.68-3.22
			V21.43c0-2.05,0.79-3.66,2.36-4.8c1.27-0.91,2.6-1.36,3.99-1.36h23.2c2.05,0,3.66,0.76,4.8,2.27c1.15,1.51,1.72,3.23,1.72,5.17
			c0,1.81-0.39,3.29-1.18,4.44c-0.97,1.39-2.27,2.08-3.9,2.08H392.7v11.24h15.59c1.63,0,2.98,0.71,4.03,2.13
			c1.06,1.42,1.59,3.07,1.59,4.94c0,1.63-0.42,3.07-1.27,4.31c-0.85,1.24-2.05,1.86-3.63,1.86H392.7v12.15h15.59
			c2.48,0,4.38,0.66,5.71,1.99C415.15,68.99,415.72,70.44,415.72,72.19"/>
		<path style="clip-path:url(#SVGID_00000118359665421977168670000014735624053452689299_);fill:#1E3362;" d="M472.3,21.7
			c0,1.8-0.47,3.37-1.4,4.74c-0.94,1.37-2.1,2.05-3.49,2.05h-0.73h-9.79v43.51c0,2.3-0.69,4.05-2.08,5.26
			c-1.39,1.21-3.05,1.81-4.99,1.81c-1.81,0-3.41-0.51-4.8-1.54c-1.39-1.03-2.08-2.39-2.08-4.08V28.5h-10.51
			c-1.63,0-2.95-0.65-3.94-1.95c-1-1.3-1.5-2.89-1.5-4.76c0-1.81,0.53-3.35,1.59-4.62c1.06-1.27,2.58-1.9,4.58-1.9h31.54
			c2.48,0,4.41,0.68,5.8,2.05C471.7,18.52,472.3,19.98,472.3,21.7"/>
		<path style="clip-path:url(#SVGID_00000118359665421977168670000014735624053452689299_);fill:#1E3362;" d="M142.48,129.14
			c0,1.03-0.25,1.9-0.75,2.6c-0.5,0.7-1.25,1.06-2.25,1.06h-13.04c-1.06,0-1.92-0.44-2.58-1.31c-0.47-0.62-0.7-1.16-0.7-1.59v-26.92
			c0-1.25,0.37-2.2,1.1-2.86c0.73-0.66,1.62-0.98,2.65-0.98c1,0,1.89,0.3,2.67,0.89c0.78,0.59,1.17,1.36,1.17,2.3v23.26h8.72
			c0.97,0,1.71,0.35,2.23,1.06C142.22,127.33,142.48,128.17,142.48,129.14"/>
		<path style="clip-path:url(#SVGID_00000118359665421977168670000014735624053452689299_);fill:#1E3362;" d="M164.7,119.38
			l-3.94-12l-4.03,12H164.7z M175.3,128.85c0,1.16-0.34,2.12-1.01,2.88c-0.67,0.77-1.49,1.15-2.46,1.15c-0.69,0-1.39-0.3-2.11-0.89
			c-0.72-0.59-1.3-1.42-1.73-2.49l-1.13-3.19h-12.29l-0.75,2.81c-0.28,1.19-0.84,2.14-1.66,2.86c-0.83,0.72-1.68,1.08-2.56,1.08
			c-0.88,0-1.63-0.33-2.25-0.98c-0.63-0.66-0.94-1.58-0.94-2.77c0-0.94,0.31-2.19,0.94-3.75l7.88-22.6
			c0.72-1.41,1.52-2.45,2.39-3.12c0.88-0.67,1.8-1.01,2.77-1.01c1.16,0,2.24,0.4,3.24,1.2c1,0.8,1.73,1.77,2.2,2.93l9.1,23.63
			c0.12,0.31,0.22,0.69,0.28,1.13C175.27,128.17,175.3,128.54,175.3,128.85z"/>
		<path style="clip-path:url(#SVGID_00000118359665421977168670000014735624053452689299_);fill:#1E3362;" d="M198.36,123.7v-0.28
			c0-1.28-0.23-2.23-0.68-2.84c-0.45-0.61-1.07-0.91-1.85-0.91h-6.56v6.66h5.53c0.84,0,1.58-0.16,2.2-0.47
			C197.91,125.38,198.36,124.67,198.36,123.7 M196.02,110c0-0.81-0.21-1.52-0.63-2.11c-0.42-0.59-0.99-0.89-1.71-0.89h-4.41v5.81
			h4.78c0.66,0,1.15-0.27,1.48-0.8C195.86,111.49,196.02,110.82,196.02,110z M206.24,123.6c0,2.06-0.66,3.89-1.97,5.49
			c-1.5,1.81-3.69,3.05-6.56,3.7h-13.13c-0.75,0-1.42-0.24-2.02-0.73c-0.59-0.48-0.89-1.09-0.89-1.81v-26.92
			c0.19-1.09,0.54-1.96,1.05-2.6c0.52-0.64,1.13-0.96,1.85-0.96h11.25c2.06,0,3.85,0.91,5.35,2.72c1.5,1.81,2.25,3.84,2.25,6.1
			c0,1.34-0.28,2.56-0.84,3.66c-0.56,1.09-1.47,2-2.72,2.72c1.81,0.31,3.33,1.31,4.55,2.98
			C205.63,119.62,206.24,121.51,206.24,123.6z"/>
		<path style="clip-path:url(#SVGID_00000118359665421977168670000014735624053452689299_);fill:#1E3362;" d="M235.78,116.48
			c0-3.47-0.78-6.14-2.34-8.02c-1.44-1.72-3.31-2.58-5.63-2.58h-0.19c-2.44,0-4.39,0.94-5.86,2.81c-1.47,1.88-2.2,4.19-2.2,6.94
			c0,3.25,0.73,5.85,2.18,7.78c1.45,1.94,3.45,2.91,5.98,2.91c2.47,0,4.43-0.94,5.88-2.81
			C235.05,121.63,235.78,119.29,235.78,116.48 M243.66,115.72c0,5.94-1.11,10.3-3.33,13.08c-2.5,3.16-6.71,4.74-12.61,4.74
			c-5.44,0-9.35-1.06-11.72-3.19c-2.88-2.56-4.31-7.22-4.31-13.97c0-5.63,1.61-10.05,4.83-13.27c2.97-2.97,6.71-4.45,11.21-4.45
			c4.35,0,7.94,1.25,10.78,3.75C241.94,105.41,243.66,109.85,243.66,115.72z"/>
		<path style="clip-path:url(#SVGID_00000118359665421977168670000014735624053452689299_);fill:#1E3362;" d="M266.63,110.29
			c0-2-0.97-3.22-2.91-3.66h-5.53v6.94h5.53c0.81,0,1.5-0.31,2.06-0.94C266.35,112.01,266.63,111.22,266.63,110.29 M274.98,128.94
			c0,0.97-0.45,1.87-1.34,2.7c-0.89,0.83-1.85,1.24-2.88,1.24c-1,0-1.91-0.5-2.72-1.51l-9.85-12v9.75c0,1-0.41,1.88-1.22,2.63
			c-0.81,0.75-1.69,1.13-2.63,1.13c-0.88,0-1.66-0.31-2.37-0.94c-0.7-0.63-1.16-1.56-1.38-2.81v-26.45c0-0.56,0.27-1.19,0.82-1.88
			c0.55-0.69,1.12-1.03,1.71-1.03h12.38c2.44,0,4.5,0.95,6.19,2.87c1.69,1.91,2.53,4.09,2.53,6.53c0,2.98-0.77,5.28-2.3,6.92
			c-1.69,1-3.36,1.99-5.02,2.96v0.38l7.32,7.62c0.25,0.25,0.44,0.55,0.56,0.91C274.92,128.33,274.98,128.65,274.98,128.94z"/>
		<path style="clip-path:url(#SVGID_00000118359665421977168670000014735624053452689299_);fill:#1E3362;" d="M297.58,119.38
			l-3.94-12l-4.03,12H297.58z M308.17,128.85c0,1.16-0.34,2.12-1.01,2.88c-0.67,0.77-1.49,1.15-2.46,1.15
			c-0.69,0-1.39-0.3-2.11-0.89c-0.72-0.59-1.3-1.42-1.73-2.49l-1.13-3.19h-12.29l-0.75,2.81c-0.28,1.19-0.84,2.14-1.66,2.86
			c-0.83,0.72-1.68,1.08-2.56,1.08c-0.88,0-1.63-0.33-2.25-0.98c-0.63-0.66-0.94-1.58-0.94-2.77c0-0.94,0.31-2.19,0.94-3.75
			l7.88-22.6c0.72-1.41,1.52-2.45,2.39-3.12c0.88-0.67,1.8-1.01,2.77-1.01c1.16,0,2.24,0.4,3.24,1.2c1,0.8,1.73,1.77,2.2,2.93
			l9.1,23.63c0.12,0.31,0.22,0.69,0.28,1.13C308.14,128.17,308.17,128.54,308.17,128.85z"/>
		<path style="clip-path:url(#SVGID_00000118359665421977168670000014735624053452689299_);fill:#1E3362;" d="M336.59,103.11
			c0,0.93-0.24,1.74-0.73,2.45c-0.48,0.71-1.09,1.06-1.81,1.06h-0.38h-5.06v22.51c0,1.19-0.36,2.09-1.08,2.72
			c-0.72,0.63-1.58,0.94-2.58,0.94c-0.94,0-1.77-0.27-2.49-0.8c-0.72-0.53-1.08-1.23-1.08-2.11v-23.26h-5.44
			c-0.84,0-1.52-0.34-2.04-1.01c-0.52-0.67-0.77-1.49-0.77-2.46c0-0.94,0.27-1.74,0.82-2.39c0.55-0.66,1.34-0.98,2.37-0.98h16.32
			c1.28,0,2.28,0.35,3,1.06C336.28,101.46,336.59,102.22,336.59,103.11"/>
		<path style="clip-path:url(#SVGID_00000118359665421977168670000014735624053452689299_);fill:#1E3362;" d="M365.56,116.48
			c0-3.47-0.78-6.14-2.34-8.02c-1.44-1.72-3.31-2.58-5.63-2.58h-0.19c-2.44,0-4.39,0.94-5.86,2.81c-1.47,1.88-2.2,4.19-2.2,6.94
			c0,3.25,0.73,5.85,2.18,7.78c1.45,1.94,3.45,2.91,5.98,2.91c2.47,0,4.43-0.94,5.88-2.81
			C364.84,121.63,365.56,119.29,365.56,116.48 M373.44,115.72c0,5.94-1.11,10.3-3.33,13.08c-2.5,3.16-6.71,4.74-12.61,4.74
			c-5.44,0-9.35-1.06-11.72-3.19c-2.88-2.56-4.31-7.22-4.31-13.97c0-5.63,1.61-10.05,4.83-13.27c2.97-2.97,6.71-4.45,11.21-4.45
			c4.35,0,7.94,1.25,10.78,3.75C371.72,105.41,373.44,109.85,373.44,115.72z"/>
		<path style="clip-path:url(#SVGID_00000118359665421977168670000014735624053452689299_);fill:#1E3362;" d="M396.42,110.29
			c0-2-0.97-3.22-2.91-3.66h-5.53v6.94h5.53c0.81,0,1.5-0.31,2.06-0.94C396.13,112.01,396.42,111.22,396.42,110.29 M404.76,128.94
			c0,0.97-0.45,1.87-1.34,2.7c-0.89,0.83-1.85,1.24-2.88,1.24c-1,0-1.91-0.5-2.72-1.51l-9.85-12v9.75c0,1-0.41,1.88-1.22,2.63
			c-0.81,0.75-1.69,1.13-2.63,1.13c-0.88,0-1.66-0.31-2.37-0.94c-0.7-0.63-1.16-1.56-1.38-2.81v-26.45c0-0.56,0.27-1.19,0.82-1.88
			c0.55-0.69,1.12-1.03,1.71-1.03h12.38c2.44,0,4.5,0.95,6.19,2.87c1.69,1.91,2.53,4.09,2.53,6.53c0,2.98-0.77,5.28-2.3,6.92
			c-1.69,1-3.36,1.99-5.02,2.96v0.38l7.32,7.62c0.25,0.25,0.44,0.55,0.56,0.91C404.7,128.33,404.76,128.65,404.76,128.94z"/>
		<path style="clip-path:url(#SVGID_00000118359665421977168670000014735624053452689299_);fill:#1E3362;" d="M418.45,129.51
			c0,1.13-0.34,2-1.03,2.63c-0.69,0.63-1.5,0.94-2.44,0.94c-0.97,0-1.84-0.31-2.6-0.94c-0.77-0.62-1.15-1.5-1.15-2.63v-26.82
			c0-1.13,0.34-1.99,1.03-2.58c0.69-0.59,1.53-0.89,2.53-0.89c0.94,0,1.78,0.28,2.53,0.84c0.75,0.56,1.13,1.31,1.13,2.25V129.51z"/>
		<path style="clip-path:url(#SVGID_00000118359665421977168670000014735624053452689299_);fill:#1E3362;" d="M445.27,129.23
			c0,0.94-0.27,1.77-0.8,2.49c-0.53,0.72-1.2,1.08-2.02,1.08h-13.79c-0.53,0-1.09-0.29-1.66-0.87c-0.58-0.58-0.87-1.13-0.87-1.66
			v-27.29c0-1.06,0.41-1.89,1.22-2.49c0.66-0.47,1.34-0.7,2.06-0.7h12c1.06,0,1.89,0.39,2.49,1.17c0.59,0.78,0.89,1.67,0.89,2.67
			c0,0.94-0.2,1.7-0.61,2.3c-0.5,0.72-1.17,1.08-2.02,1.08h-8.82v5.81h8.07c0.84,0,1.54,0.37,2.09,1.1
			c0.55,0.73,0.82,1.59,0.82,2.56c0,0.84-0.22,1.59-0.66,2.23c-0.44,0.64-1.06,0.96-1.88,0.96h-8.44v6.28h8.07
			c1.28,0,2.27,0.34,2.95,1.03C444.97,127.57,445.27,128.32,445.27,129.23"/>
		<path style="clip-path:url(#SVGID_00000118359665421977168670000014735624053452689299_);fill:#1E3362;" d="M473.59,121.91
			c0,3.13-0.95,5.74-2.86,7.83c-2.09,2.28-4.92,3.42-8.49,3.42c-2.81,0-5.31-0.36-7.5-1.08c-3-1-4.5-2.49-4.5-4.45
			c0-0.84,0.34-1.7,1.01-2.56c0.67-0.86,1.4-1.29,2.18-1.29c0.59,0,1.3,0.17,2.11,0.52c0.81,0.34,1.23,0.52,1.27,0.52
			c0.91,0.28,1.82,0.52,2.74,0.73c0.92,0.2,1.66,0.3,2.23,0.3c1,0,1.89-0.3,2.67-0.89c0.78-0.59,1.17-1.36,1.17-2.3
			c0-1-0.55-1.81-1.64-2.44c-0.69-0.38-1.52-0.66-2.49-0.84c-2.66-1.13-5.31-2.25-7.97-3.38c-1.94-1.56-2.91-3.66-2.91-6.28
			c0-3.38,1.36-6.08,4.08-8.11c2.31-1.72,4.89-2.58,7.74-2.58c3.06,0,5.42,0.55,7.08,1.64c1.34,0.91,2.02,2.11,2.02,3.61
			c0,1.03-0.34,1.85-1.01,2.46c-0.67,0.61-1.52,0.91-2.56,0.91c-0.91,0-1.81-0.2-2.72-0.61c-0.91-0.41-1.81-0.61-2.72-0.61
			c-1,0-1.92,0.31-2.77,0.94c-0.84,0.62-1.27,1.25-1.27,1.88c0,0.81,1.3,1.56,3.89,2.25c3.47,0.91,5.89,1.83,7.27,2.77
			C472.28,116.02,473.59,118.57,473.59,121.91"/>
		<polygon style="clip-path:url(#SVGID_00000118359665421977168670000014735624053452689299_);fill:#00743D;" points="316.35,192.3 
			322.41,192.3 322.41,169.81 330.68,169.81 330.68,164.71 308.08,164.71 308.08,169.81 316.35,169.81 		"/>
		<path style="clip-path:url(#SVGID_00000118359665421977168670000014735624053452689299_);fill:#00743D;" d="M345.71,184.57
			c0,1.24-0.15,4.6-4.44,4.6c-1.78,0-3.36-0.54-3.36-2.55c0-2.01,1.55-2.63,3.25-2.94c1.7-0.31,3.63-0.35,4.56-1.16V184.57z
			 M338.53,178.47c0.19-2.16,1.51-3.01,3.63-3.01c1.93,0,3.55,0.39,3.55,2.7c0.23,4.48-13.21-0.39-13.29,8.69
			c0,4.1,2.98,5.99,6.8,5.99c2.47,0,4.98-0.66,6.72-2.47c0.04,0.66,0.19,1.31,0.39,1.93h5.56c-0.5-0.81-0.7-2.63-0.7-4.44v-10.39
			c0-4.79-4.79-5.68-8.77-5.68c-4.48,0-9.08,1.58-9.39,6.68H338.53z"/>
		<path style="clip-path:url(#SVGID_00000118359665421977168670000014735624053452689299_);fill:#00743D;" d="M355.45,192.3h5.49
			v-10.47c0-4.06,1.27-5.72,4.25-5.72c2.59,0,3.52,1.62,3.52,4.91v11.28h5.49v-12.29c0-4.95-1.47-8.23-7.3-8.23
			c-2.32,0-4.71,1.04-6.1,3.32h-0.12v-2.78h-5.22V192.3z"/>
		<polygon style="clip-path:url(#SVGID_00000118359665421977168670000014735624053452689299_);fill:#00743D;" points="377.13,192.3 
			395.48,192.3 395.48,188.16 384.35,188.16 394.75,176.46 394.75,172.32 377.9,172.32 377.9,176.46 387.52,176.46 377.13,188.16 		
			"/>
		<path style="clip-path:url(#SVGID_00000118359665421977168670000014735624053452689299_);fill:#00743D;" d="M410.86,184.57
			c0,1.24-0.15,4.6-4.44,4.6c-1.78,0-3.36-0.54-3.36-2.55c0-2.01,1.55-2.63,3.25-2.94c1.7-0.31,3.63-0.35,4.56-1.16V184.57z
			 M403.67,178.47c0.19-2.16,1.51-3.01,3.63-3.01c1.93,0,3.55,0.39,3.55,2.7c0.23,4.48-13.21-0.39-13.29,8.69
			c0,4.1,2.98,5.99,6.8,5.99c2.47,0,4.98-0.66,6.72-2.47c0.04,0.66,0.19,1.31,0.39,1.93h5.56c-0.5-0.81-0.7-2.63-0.7-4.44v-10.39
			c0-4.79-4.79-5.68-8.77-5.68c-4.48,0-9.08,1.58-9.39,6.68H403.67z"/>
		<path style="clip-path:url(#SVGID_00000118359665421977168670000014735624053452689299_);fill:#00743D;" d="M420.6,192.3h5.49
			v-10.47c0-4.06,1.27-5.72,4.25-5.72c2.59,0,3.52,1.62,3.52,4.91v11.28h5.49v-12.29c0-4.95-1.47-8.23-7.3-8.23
			c-2.32,0-4.71,1.04-6.1,3.32h-0.12v-2.78h-5.22V192.3z"/>
		<path style="clip-path:url(#SVGID_00000118359665421977168670000014735624053452689299_);fill:#00743D;" d="M443.66,192.3h5.49
			v-19.98h-5.49V192.3z M449.15,164.71h-5.49v4.52h5.49V164.71z"/>
		<path style="clip-path:url(#SVGID_00000118359665421977168670000014735624053452689299_);fill:#00743D;" d="M465.92,184.57
			c0,1.24-0.15,4.6-4.44,4.6c-1.78,0-3.36-0.54-3.36-2.55c0-2.01,1.55-2.63,3.25-2.94c1.7-0.31,3.63-0.35,4.56-1.16V184.57z
			 M458.73,178.47c0.19-2.16,1.51-3.01,3.63-3.01c1.93,0,3.55,0.39,3.55,2.7c0.23,4.48-13.21-0.39-13.29,8.69
			c0,4.1,2.98,5.99,6.8,5.99c2.47,0,4.98-0.66,6.72-2.47c0.04,0.66,0.19,1.31,0.39,1.93h5.56c-0.5-0.81-0.7-2.63-0.7-4.44v-10.39
			c0-4.79-4.79-5.68-8.77-5.68c-4.48,0-9.08,1.58-9.39,6.68H458.73z"/>
		
			<path style="clip-path:url(#SVGID_00000118359665421977168670000014735624053452689299_);fill-rule:evenodd;clip-rule:evenodd;fill:#1E3362;" d="
			M66.42,135.22c-6.4-1.05-12.86-2.56-18.74-5.39c-15.74-7.59-15.35-26.72,18.36-30.59l-0.26-28.67
			c-12.38-3.15-44.7-4.47-42.82-25.8c0.69-7.89,10.16-13.67,16.64-16.71c5.57-2.61,18.46-7.46,25.29-7.89l0.32-6.72l-50.39,0.6
			l1.89,177.88l49.92-0.37L66.42,135.22z"/>
		
			<path style="clip-path:url(#SVGID_00000118359665421977168670000014735624053452689299_);fill-rule:evenodd;clip-rule:evenodd;fill:#1E3362;" d="
			M69.15,231.92c6.64-12.06,21.68-48.77,26.22-67.42c1.56-6.38,2.35-11.47-1.83-17.12c-3.51-4.74-9.31-6.65-15.69-8.79L69.15,231.92
			z"/>
		
			<polygon style="clip-path:url(#SVGID_00000118359665421977168670000014735624053452689299_);fill-rule:evenodd;clip-rule:evenodd;fill:#00743D;" points="
			64.87,20.18 65.77,70.58 84.46,73.34 90.92,13.49 		"/>
		
			<polygon style="clip-path:url(#SVGID_00000118359665421977168670000014735624053452689299_);fill-rule:evenodd;clip-rule:evenodd;fill:#00743D;" points="
			66.44,135.22 77.86,138.6 81.98,96.26 66.04,99.23 		"/>
		
			<path style="clip-path:url(#SVGID_00000118359665421977168670000014735624053452689299_);fill-rule:evenodd;clip-rule:evenodd;fill:#1E3362;" d="
			M84.46,73.34l-2.48,22.93c8.45-0.47,24.13-4.48,26.55-10.34C112.13,77.18,89.26,74.26,84.46,73.34"/>
	</g>
</g>
</svg>
